<svg id="Layer_1" data-name="Layer 1" xmlns="http://www.w3.org/2000/svg" viewBox="0 0 474.94 217.17"><defs><style>.cls-1{fill:#f1b4b1;}.cls-2{fill:#c5164a;}.cls-3{fill:#21201f;}.cls-4{fill:#e21f26;}.cls-5{fill:#01b4c0;}.cls-6{fill:#c5e4ea;}.cls-7{fill:#336080;}.cls-8{fill:#336081;}.cls-9{fill:#003c57;}.cls-10{fill:#e6e460;}.cls-11{fill:#dcddde;}.cls-12{fill:#aac6cc;}.cls-13{fill:#179caa;}</style></defs><title>ZOLA</title><path class="cls-1" d="M233.29,8.46c.43-.44.86-.88,1.32-1.3l.13.15c-.45.42-.89.85-1.31,1.29Z"/><path class="cls-1" d="M233.36,8.52c.42-.44.86-.87,1.32-1.29h0C234.22,7.65,233.79,8.08,233.36,8.52Z"/><path class="cls-1" d="M235.87,8.54q-.52-.54-1.07-1.05l.14-.15q.56.52,1.08,1.06Z"/><path class="cls-1" d="M235.94,8.47q-.52-.54-1.08-1.06Q235.42,7.92,235.94,8.47Z"/><polygon class="cls-2" points="234.61 7.31 234.75 7.16 234.93 7.34 234.8 7.48 234.61 7.31"/><path class="cls-2" d="M234.86,7.41l-.18-.18h0Z"/><path class="cls-3" d="M85.9,202.32v9.95A3.84,3.84,0,0,1,82,216L6.78,216A3.77,3.77,0,0,1,3,212.16V200.88a3.85,3.85,0,0,1,1.07-2.48l53.8-60H3.74A3.72,3.72,0,0,1,0,134.69l.07-10.18a3.77,3.77,0,0,1,3.8-3.74l75.25.1a3.77,3.77,0,0,1,3.74,3.8V135.4a4,4,0,0,1-1,2.85L28.16,198.52h54a3.77,3.77,0,0,1,3.74,3.8"/><path class="cls-3" d="M176.07,217.17a49,49,0,1,1,49.35-48.63,49.05,49.05,0,0,1-49.35,48.63m.58-79.56A30.56,30.56,0,1,0,207,168.4a30.6,30.6,0,0,0-30.34-30.79"/><path class="cls-3" d="M336.43,200.78v12.67c0,1.37-1.52,2.55-3.25,2.54l-52.65,0a2.49,2.49,0,0,1-2.47-2.5V123.29c0-1.37,1.79-2.48,3.17-2.47l12.75,0a2.49,2.49,0,0,1,2.47,2.5v75h36.86c1.73,0,3.13,1.13,3.12,2.51"/><path class="cls-3" d="M472.19,216H458.48a2.73,2.73,0,0,1-2.48-1.64l-8.2-19.22H403.15l-8.64,19.26A2.73,2.73,0,0,1,392,216H378.11a2.73,2.73,0,0,1-2.46-3.85l40.88-89.62a2.67,2.67,0,0,1,2.33-1.69h14.33a2.64,2.64,0,0,1,2.3,1.83l39.22,89.52a2.73,2.73,0,0,1-2.52,3.82M440,177.46l-14.2-32.38-14.68,32.38Z"/><polygon class="cls-4" points="194.31 74.34 194.19 74.05 194.63 74.32 194.34 74.45 194.31 74.34"/><path class="cls-4" d="M194.41,74.31h0Z"/><path class="cls-5" d="M194.33,74.28c.24-.78,5.81-19.33,5.86-37.52,0-8.83-1.27-16.07-3.84-21.58a25.9,25.9,0,0,0-2-3.56l0-.06,0-.06a25.76,25.76,0,0,1,5.9-6.18A26.94,26.94,0,0,1,216.15,0h.15a27.16,27.16,0,0,1,9.64,1.78c.72.27,1.35.53,1.92.8a27.48,27.48,0,0,1,6.89,4.58l.08.07-.08.07c-.46.42-.89.85-1.31,1.29l-.23.24-.5.56-.23.26-.51.61-.28.36-.42.55-.14.2q-.46.63-.88,1.29l-.18.28-.35.58-.14,0,.09.05-.19.32-.33.6-.19.36-.14.06.09,0-.27.55-.19.42c-.17.36-.33.73-.48,1.1l-.19.47c-.06.17-.33.92-.39,1.09l-.18.58-.16.54c-.05.19-.11.38-.16.56s-.27,1.11-.27,1.11q-.11.53-.2,1.06l-.08.49c0,.22-.07.44-.09.66s0,.35-.06.52,0,.44-.06.66,0,.34,0,.5,0,.49,0,.74l0,.42q0,.56,0,1.13l0,.36c0,.27,0,.54,0,.82l0,.38c0,.32.05.56.08.81l.06.45c0,.26.08.53.12.79l.06.38c.07.39.15.77.24,1.15l0,.13c.1.4.18.72.27,1l.12.39q.12.39.25.78l.14.42c.09.26.19.53.3.79l.14.36c.16.38.32.76.49,1.13s.36.74.55,1.11l.18.35.42.77.22.37.48.79.19.31c.23.36.47.73.71,1.09s.51.73.76,1.08l.22.29.6.79L233,45l.68.84.17.21.91,1.06.06.07-.05.07A72.87,72.87,0,0,1,226,55.61a143,143,0,0,1-25.63,16c-3.57,1.77-5.85,2.74-5.87,2.75l-.2.08Z"/><path class="cls-5" d="M234.67,47.22l-.91-1.07-.17-.21-.68-.85-.24-.31-.6-.8-.22-.29c-.25-.34-.49-.68-.73-1l0-.05c-.25-.36-.48-.73-.71-1.09l-.19-.31-.48-.79-.22-.38-.43-.78-.19-.35c-.19-.37-.38-.74-.55-1.12s-.34-.76-.49-1.14l-.14-.36c-.1-.26-.2-.53-.3-.79l-.14-.42q-.13-.39-.25-.78l-.12-.4c-.09-.32-.17-.64-.25-1l-.05-.2c-.09-.39-.17-.77-.24-1.16l-.06-.38c0-.27-.09-.53-.12-.8s0-.3-.06-.45-.06-.5-.08-.74,0-.3,0-.46,0-.54,0-.82c0-.12,0-.24,0-.36q0-.56,0-1.13c0-.14,0-.28,0-.42s0-.49,0-.74,0-.34,0-.51,0-.44.06-.66,0-.35.06-.52.06-.44.1-.66,0-.33.08-.49c.06-.35.13-.71.2-1.06,0-.17.08-.34.12-.51s.1-.41.15-.61.1-.38.16-.57l.16-.54.19-.58.18-.51c.07-.2.14-.39.21-.59l.19-.47c.15-.37.31-.74.48-1.11l.19-.42.3-.61.21-.41.33-.6.22-.38.37-.61.18-.29q.42-.66.89-1.3l.14-.2.46-.6.25-.32.47-.57.27-.31.51-.56.23-.24c.42-.44.86-.87,1.32-1.29a27.36,27.36,0,0,0-6.86-4.57c-.63-.29-1.27-.55-1.91-.8A27.12,27.12,0,0,0,216.21.1h-.06a26.7,26.7,0,0,0-15.86,5.3,25.67,25.67,0,0,0-5.88,6.16,26,26,0,0,1,2,3.58c2.87,6.15,3.86,13.82,3.85,21.58v0c0,18.4-5.79,37.3-5.87,37.55.2-.08,2.44-1,5.87-2.75a144.11,144.11,0,0,0,25.61-16,72.66,72.66,0,0,0,8.78-8.3h0Z"/><polygon class="cls-1" points="274.9 74.4 274.7 74.3 275.2 74.1 275.04 74.36 275.01 74.48 274.9 74.4"/><path class="cls-1" d="M275,74.31h0Z"/><path class="cls-6" d="M274.89,74.4c-.09,0-2.33-1-5.87-2.75a142.93,142.93,0,0,1-25.63-16,72.76,72.76,0,0,1-8.79-8.31l-.06-.07.06-.07.93-1.08.13-.16.72-.89.22-.28.62-.81.21-.28q.37-.51.72-1c.28-.42.52-.78.75-1.14l.19-.32.47-.78.18-.31c.19-.33.33-.58.46-.84l.19-.36c.19-.37.38-.74.55-1.11s.34-.75.49-1.13l.14-.36c.1-.27.21-.53.3-.8l.14-.41q.13-.39.25-.79l.12-.39q.14-.49.26-1l.14-.16-.1,0c.09-.39.17-.77.24-1.16l.06-.36c0-.27.09-.54.13-.81l0-.35c0-.34.07-.59.09-.84l0-.44c0-.28,0-.56,0-.84V27.6q0-.57,0-1.13v-.4c0-.25,0-.51,0-.76s0-.32,0-.48,0-.46-.06-.68,0-.34-.06-.5-.12-.84-.12-.84l-.05-.32c-.06-.36-.13-.71-.21-1.06l-.11-.47c-.05-.21-.1-.43-.16-.64l-.13-.46c-.08-.27-.13-.46-.19-.64l-.18-.56-.24-.68-.15-.41-.22-.55q-.2-.5-.42-1l-.22-.48-.29-.58-.23-.45-.32-.57-.24-.42-.34-.58-.23-.36q-.37-.57-.77-1.12l-.22-.31-.43-.55-.28-.36-.44-.53-.31-.35-.47-.52-.3-.31q-.52-.54-1.07-1.05l-.26-.25.08-.07a27.46,27.46,0,0,1,6.89-4.58c.58-.27,1.21-.53,1.92-.8a27,27,0,0,1,25.7,3.55,25.76,25.76,0,0,1,5.9,6.18l0,.06,0,.06a25.93,25.93,0,0,0-2,3.56c-9.57,20.53,1.91,58.71,2,59.09l.06.21Z"/><path class="cls-6" d="M272.91,15.14a26,26,0,0,1,2-3.58,25.67,25.67,0,0,0-5.88-6.16,26.87,26.87,0,0,0-25.61-3.53c-.64.24-1.28.5-1.91.8a27.37,27.37,0,0,0-6.86,4.57h0l.18.18q.56.51,1.08,1.06l.3.31.47.52.31.35.45.53.29.36.43.56.22.31q.4.55.77,1.13l.24.36.35.58.25.42.32.58.23.45.29.58.22.48q.22.49.43,1l.22.55.2.56.19.54.18.56.17.56c.05.18.1.36.15.55s.11.43.16.64.08.32.11.48c.08.35.14.71.21,1.07,0,.16,0,.32.07.47s.07.46.1.69,0,.34.06.5,0,.45.06.68,0,.33,0,.49,0,.51,0,.76,0,.27,0,.4q0,.57,0,1.14c0,.11,0,.23,0,.34,0,.28,0,.56,0,.84s0,.29,0,.44,0,.51-.08.76l-.06.44c0,.27-.08.54-.13.82,0,.12,0,.24-.06.37-.07.39-.15.78-.24,1.16l0,.18q-.12.49-.26,1l-.12.39q-.12.4-.25.79l-.14.41c-.1.27-.2.53-.3.8l-.14.36c-.16.38-.32.76-.5,1.14s-.36.74-.55,1.11l-.19.36-.42.76-.22.39-.47.78-.2.32c-.23.36-.47.73-.71,1.09l0,.06q-.35.52-.73,1l-.21.28-.62.82-.22.28-.72.89-.13.16-.93,1.09h0a72.62,72.62,0,0,0,8.78,8.3,144,144,0,0,0,25.61,16c3.43,1.7,5.67,2.67,5.87,2.75C274.83,74,263.25,35.87,272.91,15.14Z"/><polygon class="cls-7" points="194.37 74.4 194.19 74.31 194.61 74.1 194.52 74.34 194.49 74.45 194.37 74.4"/><path class="cls-7" d="M194.42,74.31h0Z"/><path class="cls-8" d="M194.36,74.4s-2.27-1-5.87-2.75c-9.79-4.86-33.38-17.88-40.79-33.78-6.15-13.18-.19-29,13.27-35.29A27,27,0,0,1,188.6,5.32a25.76,25.76,0,0,1,5.9,6.18l0,.06,0,.06a26,26,0,0,0-2,3.56c-2.57,5.51-3.86,12.78-3.84,21.6.07,18.29,5.63,36.72,5.86,37.49l.06.2Z"/><path class="cls-8" d="M188.54,36.78c0-7.78,1-15.48,3.85-21.64a26.06,26.06,0,0,1,2-3.58,25.68,25.68,0,0,0-5.88-6.16A26.91,26.91,0,0,0,161,2.67c-13.44,6.27-19.35,22-13.22,35.16,7.29,15.63,29.92,28.36,40.74,33.73,3.43,1.7,5.67,2.66,5.87,2.75-.08-.25-5.79-19.06-5.87-37.42Z"/><path class="cls-9" d="M194.37,74.39h0c-.35-1-5.86-19.38-5.93-37.51,0-8.95,1.27-16.24,3.86-21.78a26.35,26.35,0,0,1,2-3.59l.08-.12.08.12a26.22,26.22,0,0,1,2,3.59c2.58,5.53,3.88,12.8,3.86,21.62,0,18.25-5.63,36.83-5.87,37.61l0,0-.1,0Z"/><path class="cls-9" d="M200.29,36.72c0-7.76-1-15.43-3.85-21.58a26,26,0,0,0-2-3.58,26.06,26.06,0,0,0-2,3.58c-2.87,6.16-3.87,13.86-3.85,21.64v.1c.07,18.36,5.79,37.17,5.87,37.42h0c.08-.25,5.82-19.14,5.87-37.55Z"/><polygon class="cls-10" points="274.83 74.33 274.83 74.14 275.13 74.29 275 74.39 274.89 74.44 274.83 74.33"/><path class="cls-10" d="M274.93,74.31h0Z"/><path class="cls-11" d="M274.86,74.27c.24-.78,5.78-19.28,5.86-37.34v-.32c0-8.74-1.28-16-3.84-21.43a25.88,25.88,0,0,0-2-3.56l0-.06,0-.06a25.81,25.81,0,0,1,5.9-6.18A26.94,26.94,0,0,1,296.68,0h.15a27.18,27.18,0,0,1,11.56,2.58c13.46,6.28,19.41,22.11,13.27,35.29-7.41,15.9-31,28.92-40.79,33.78-3.52,1.74-5.78,2.71-5.87,2.75l-.2.08Z"/><path class="cls-11" d="M308.34,2.67A27.21,27.21,0,0,0,296.74.1h-.06a26.71,26.71,0,0,0-15.86,5.31,25.72,25.72,0,0,0-5.88,6.16,25.93,25.93,0,0,1,2,3.58c2.85,6.12,3.85,13.75,3.85,21.47v.32C280.74,55.29,275,74.06,275,74.31c.19-.08,2.43-1,5.87-2.75,10.82-5.37,33.45-18.1,40.74-33.73C327.69,24.68,321.78,8.93,308.34,2.67Z"/><path class="cls-12" d="M274.9,74.4h0c-.29-.79-11.64-38.79-2.08-59.3a26.25,26.25,0,0,1,2-3.59l.08-.12.08.12a26.2,26.2,0,0,1,2,3.59c2.57,5.5,3.86,12.74,3.85,21.52v.32c-.08,18.08-5.63,36.62-5.87,37.4v0l-.1,0Z"/><path class="cls-12" d="M280.82,36.61c0-7.73-1-15.36-3.85-21.47a25.93,25.93,0,0,0-2-3.58,26,26,0,0,0-2,3.58c-9.67,20.73,1.91,58.82,2,59.17h0c.07-.24,5.78-19,5.87-37.37Z"/><path class="cls-13" d="M234.59,47.28c-.3-.34-.61-.7-.91-1.06l-.11-.13-.75-.92-.24-.31-.6-.8-.22-.29c-.25-.34-.49-.69-.73-1s-.52-.78-.75-1.14l-.19-.31-.48-.8-.22-.38-.43-.78-.19-.35c-.19-.37-.38-.74-.55-1.12s-.34-.76-.5-1.14l-.14-.37c-.1-.27-.2-.53-.3-.8l-.14-.42q-.13-.39-.25-.78l-.12-.4c-.09-.32-.17-.65-.25-1l-.05-.2q-.14-.58-.24-1.16l-.06-.38c0-.27-.09-.53-.12-.8L226,30c0-.25-.06-.5-.08-.75l0-.46c0-.27,0-.55,0-.82l0-.36q0-.57,0-1.13l0-.43c0-.25,0-.5,0-.74s0-.34,0-.51,0-.44.06-.66,0-.35.06-.52.06-.44.1-.66l.08-.5c.06-.35.13-.71.21-1.06l.12-.51c0-.21.1-.41.15-.61s.1-.38.16-.57l.16-.54.19-.58.18-.51.21-.59.19-.47c.15-.37.31-.75.48-1.11l.19-.42.28-.55.24-.47.33-.6.24-.42.35-.58.19-.29q.43-.66.89-1.3l.14-.2.43-.55.15,0-.08-.06.22-.27.48-.57.27-.31.51-.56.24-.24c.42-.44.86-.88,1.32-1.3l.07-.06.25.24q.56.52,1.08,1.06l.3.31.47.52.31.35.45.54.29.36.43.56.22.31q.4.56.77,1.13l.24.37.35.58.25.42.32.58.23.45.29.58.22.48q.22.49.43,1l.22.55.2.56.19.54.18.56.17.56.15.55c.06.21.11.43.16.65l.11.48c.08.36.15.71.21,1.07l.07.47c0,.23.07.46.1.69s0,.34.06.51,0,.45.06.68,0,.33,0,.49,0,.51,0,.77v.4q0,.57,0,1.14v.34c0,.28,0,.56,0,.84l0,.38c0,.32-.05.57-.08.82l-.06.44c0,.27-.08.55-.13.82l-.06.37c-.07.39-.15.78-.24,1.17l0,.18c-.08.33-.17.66-.26,1l-.12.39q-.12.4-.25.79l-.14.41c-.1.27-.2.54-.3.8l-.14.36c-.16.38-.32.76-.5,1.14s-.36.75-.55,1.12l-.19.36-.42.77-.22.39-.47.78-.2.32c-.23.36-.47.73-.72,1.09s-.52.74-.77,1.08l-.21.28-.62.82-.22.28-.72.89-.07.09c-.36.44-.67.8-1,1.16l-.07.08Z"/><path class="cls-13" d="M233.36,8.52l-.23.24-.51.56-.27.31-.47.57-.25.32-.46.6-.14.2q-.46.64-.89,1.3l-.18.29-.37.61-.22.38-.33.6-.21.41-.3.61-.19.42c-.17.37-.33.74-.48,1.11l-.19.47c-.07.19-.14.39-.21.59l-.18.51-.19.58-.16.54c-.05.19-.11.38-.16.57s-.1.41-.15.61-.08.34-.12.51c-.08.35-.14.71-.2,1.06,0,.16-.05.33-.08.49s-.07.44-.1.66,0,.35-.06.52,0,.44-.06.66,0,.34,0,.51,0,.49,0,.74,0,.28,0,.42q0,.56,0,1.13c0,.12,0,.24,0,.36,0,.27,0,.55,0,.82s0,.3,0,.46,0,.49.08.74,0,.3.06.45.08.53.12.8l.06.38c.07.39.15.77.24,1.16l.05.2c.08.32.16.65.25,1l.12.4q.12.39.25.78l.14.42c.09.27.19.53.3.79l.14.36c.16.38.32.76.49,1.14s.36.75.55,1.12l.19.35.43.78.22.38.48.79.19.31c.23.36.47.73.71,1.09l0,.05c.24.34.48.69.73,1l.22.29.6.8.24.31.68.85.17.21.91,1.07h0l.93-1.09.13-.16.72-.89.22-.28.62-.82.21-.28q.37-.51.73-1l0-.06c.25-.36.48-.72.71-1.09l.2-.32.47-.78.22-.39.42-.76.19-.36c.19-.37.38-.74.55-1.11s.34-.76.5-1.14l.14-.36c.1-.27.21-.53.3-.8l.14-.41q.13-.39.25-.79l.12-.39q.14-.49.26-1l0-.18c.09-.39.17-.78.24-1.16,0-.12,0-.24.06-.37,0-.27.09-.54.13-.82l.06-.44c0-.25.06-.51.08-.76s0-.29,0-.44,0-.56,0-.84c0-.11,0-.23,0-.34q0-.57,0-1.14c0-.13,0-.27,0-.4s0-.51,0-.76,0-.33,0-.49,0-.45-.06-.68,0-.34-.06-.5-.06-.46-.1-.69,0-.31-.07-.47c-.06-.36-.13-.71-.21-1.07,0-.16-.08-.32-.11-.48s-.1-.43-.16-.64-.1-.36-.15-.55l-.17-.56-.18-.56-.19-.54-.2-.56-.22-.55q-.2-.5-.43-1l-.22-.48-.29-.58-.23-.45-.32-.58-.25-.42-.35-.58-.24-.36q-.37-.57-.77-1.13l-.22-.31-.43-.56-.29-.36L237,9.65l-.31-.35-.47-.52-.3-.31q-.52-.54-1.08-1.06l-.19-.18C234.22,7.65,233.79,8.08,233.36,8.52Z"/></svg>